<svg width="121" height="92" viewBox="0 0 121 92" fill="none" xmlns="http://www.w3.org/2000/svg">
<path d="M120.592 46.1904C120.465 45.884 120.309 45.5904 120.125 45.3136C120.64 46.0659 120.151 45.2555 120.011 45.0283C119.533 44.4042 118.933 43.8811 118.246 43.4901C115.593 41.6629 112.59 40.2762 109.676 38.9141C99.7194 34.2939 89.3207 30.669 78.6349 28.0934C74.149 26.9775 69.6042 26.1071 65.0213 25.4862C67.5821 23.0566 69.6779 20.2408 70.7729 16.6582C72.3501 11.4969 70.7089 4.46207 65.8376 1.5627C61.1406 -1.23292 54.033 0.0329285 49.668 2.87005C45.775 5.40069 42.9419 14.9566 49.7148 15.3998C50.9729 15.4817 50.9648 13.5497 49.7148 13.4683C45.9267 13.2209 47.9504 7.42158 49.3575 5.68057C50.6581 4.07205 52.9089 3.24305 54.8305 2.6785C59.2966 1.37008 65.0827 1.67603 67.6149 6.07645C70.2515 10.6588 69.6995 15.8835 66.9837 20.2754C65.7921 22.1383 64.309 23.8023 62.5897 25.2052C58.084 24.7089 53.5378 24.686 49.0272 25.1371C47.8122 25.2701 45.8767 25.451 45.7341 26.9835C45.6146 28.2679 47.6545 28.9974 48.5526 29.3656C50.3342 30.0967 52.1653 30.739 54.0266 31.3206C39.9645 41.0008 26.1315 51.0087 12.5275 61.3445C7.24457 65.3485 -2.3474 70.5944 0.528147 78.6034C2.0348 82.799 5.70241 81.199 8.62746 79.8581C13.1296 77.7957 17.782 75.545 21.7999 72.5684C21.7118 76.9933 22.2028 81.4109 23.2608 85.7112C23.5181 86.9153 23.8894 88.0929 24.3698 89.2283C25.3534 91.0667 26.4075 91.9952 27.502 91.9952C27.6652 91.9952 27.8279 91.9756 27.9863 91.9366C29.0587 91.6786 29.7684 90.6229 30.0977 88.7904C30.1723 85.7409 29.8284 82.6954 29.0754 79.7373C28.5242 77.4733 27.6263 75.3059 26.4129 73.3102C25.6295 72.2992 25.3071 71.9039 25.1667 71.7474C27.0548 71.6261 28.1445 71.5346 28.4054 71.4691L29.3428 71.2419C30.018 70.9572 30.6725 70.6265 31.3014 70.2522C31.3246 70.4183 31.3504 70.5832 31.3854 70.7455C31.4798 71.0984 31.619 71.4381 31.7997 71.7565C32.5175 72.8015 33.2983 73.332 34.1205 73.332C34.2837 73.3316 34.4463 73.3117 34.6048 73.2729L34.6484 73.2623C35.9457 72.9494 36.9293 71.7368 37.5739 69.6478C37.7617 68.6118 37.8349 68.1733 37.8575 67.9813C39.2496 69.9223 40.9392 70.6715 42.8698 70.207L43.042 70.165C43.2925 70.0994 43.5392 70.0202 43.7808 69.9277C45.027 69.1991 46.0618 68.1647 46.785 66.9245C47.1658 67.1904 47.5175 67.495 47.8342 67.8333L47.8477 67.8865C47.852 67.9052 47.8574 67.9844 47.732 68.2148C46.0171 71.2744 45.3859 73.7928 45.8567 75.7014C45.9753 76.1999 46.2338 76.6551 46.6025 77.0147C46.9712 77.3743 47.4351 77.6236 47.9408 77.734C47.9481 77.7525 47.9592 77.7694 47.9734 77.7836C47.9875 77.7978 48.0044 77.8089 48.0231 77.8165L48.1673 77.8894L48.1269 77.7239C48.2843 77.6922 48.4438 77.6726 48.6042 77.6654L48.629 77.6595L48.6607 77.6462L48.7145 77.8548L49.1568 77.4158C50.3643 76.8028 51.1198 76.1313 51.4017 75.4178C51.9431 74.7362 52.1836 73.3522 52.1153 71.3042C52.1243 71.2729 52.1302 71.2408 52.133 71.2084L52.1449 71.102L52.1083 71.111L52.1034 70.978L52.0389 71.1163C52.0265 71.06 52.0119 70.9796 51.9936 70.8673L52.1465 70.8306L51.9172 70.4986L51.7375 70.0596L50.5075 67.7503C51.5427 66.4793 52.8177 65.4193 54.2617 64.6291C54.4156 66.2143 54.6912 67.7857 55.086 69.3296C55.2717 69.9559 55.4912 70.597 55.7377 71.2318C56.1057 72.4328 56.5448 73.0165 57.0829 73.0165C57.1433 73.0165 57.2035 73.0092 57.2621 72.9946L57.2884 72.9829C57.5 72.8249 57.6734 72.6222 57.7959 72.3897L57.8066 72.3705L57.5376 69.5733C57.7178 65.5884 58.2817 64.6248 58.7214 64.5184L58.7515 64.5093C58.7787 64.5146 58.8051 64.5234 58.8301 64.5354L58.851 64.5439L58.8742 64.5381C58.9237 64.5381 59.1621 64.6397 60.1484 65.938C61.5652 68.392 63.0772 69.4498 64.6296 69.0731C65.6483 68.8255 66.5328 68.2023 67.1021 67.331C67.2535 67.6427 67.4917 67.9051 67.7887 68.0875C68.0857 68.2699 68.4292 68.3646 68.7788 68.3606C69.0107 68.3582 69.2416 68.3285 69.4665 68.2723C71.0038 67.8998 72.5874 66.3653 74.1887 63.7133C74.1887 63.7181 74.1887 63.7229 74.1914 63.7282L74.2571 63.9943C74.3259 64.2768 74.4142 64.5543 74.5213 64.8249C75.1352 65.9316 75.8595 66.4935 76.6736 66.4935C76.8287 66.4928 76.9832 66.4737 77.1337 66.4366L77.5206 66.3429C78.6597 66.0689 79.5346 65.1154 80.1233 63.5021C80.366 62.5129 80.5161 62.4044 80.5538 62.3948C80.7072 62.3644 80.8629 62.3466 81.0192 62.3416C83.832 61.6127 86.3005 59.9384 88.0009 57.606C88.0117 59.347 88.0811 61.3306 88.2097 63.5367L88.2151 63.5596C88.4405 64.1071 88.7306 64.3843 89.076 64.3843C89.1315 64.3841 89.1868 64.3773 89.2407 64.3641L89.3268 64.3433C89.5388 64.2901 89.7368 64.0645 89.937 63.6357C90.9281 60.1238 91.5674 57.9987 91.8386 57.3123C92.2378 56.0512 92.7485 55.3377 93.356 55.1908L93.5524 55.1434C93.6338 55.1393 93.7153 55.1513 93.792 55.1787C93.8687 55.2061 93.9391 55.2484 93.999 55.3031C94.1674 55.5026 94.8691 56.7397 96.0852 58.9745C97.2636 60.98 98.7928 61.7755 100.614 61.3354C101.463 61.067 102.253 60.6412 102.941 60.0807C103.606 59.7556 104.33 58.7654 105.155 57.0478C105.473 56.2469 105.747 55.4299 105.977 54.6002C106.186 54.7236 106.405 54.8287 106.633 54.9141C109.623 56.006 113.203 54.523 116.147 53.8148C119.524 53.0124 122.012 49.4596 120.592 46.1904ZM48.3804 27.183C48.3497 27.1676 48.3163 27.1489 48.2846 27.1335C48.8237 27.0539 49.367 27.0049 49.9118 26.9866C53.3429 26.7339 56.7891 26.7556 60.2167 27.0516C58.8602 28.037 57.4579 28.9671 56.0831 29.9041C53.4273 29.264 50.8462 28.3521 48.3815 27.183H48.3804ZM77.8536 58.2572C77.9107 58.2435 77.9692 58.2364 78.028 58.236C78.3869 58.236 78.65 58.5621 78.8066 59.198C78.9142 60.1105 78.9374 60.4218 78.9395 60.5229C78.7743 60.5219 78.6114 60.4842 78.4628 60.4128C77.7945 60.1579 77.406 59.8274 77.3075 59.4284C77.2602 59.3166 77.237 59.1963 77.2394 59.0752C77.2417 58.9541 77.2695 58.8347 77.3211 58.7248C77.3726 58.6149 77.4467 58.5168 77.5387 58.4367C77.6306 58.3567 77.7385 58.2965 77.8553 58.2599L77.8536 58.2572ZM75.9924 60.4479C76.3589 61.0694 76.9036 61.5694 77.5577 61.8845C78.3541 62.141 78.5828 62.2293 78.6468 62.257L78.6592 62.3735C78.254 63.757 77.703 64.5423 77.0196 64.7068C76.91 64.7424 76.7921 64.7447 76.6812 64.7131C76.178 64.587 75.8304 64.147 75.6486 63.4138C75.5409 62.6688 75.5162 62.5167 75.5087 62.4794C75.5366 61.9878 75.5689 61.6015 75.6028 61.2854C75.7514 61.016 75.8816 60.7371 75.9924 60.4505V60.4479ZM56.8467 52.1643C56.7832 51.9057 56.9365 50.7414 58.0305 46.6693C58.4738 45.1092 58.6886 44.4462 58.7924 44.1738C58.8049 45.3328 58.7362 46.4913 58.5868 47.6409C58.2933 50.2633 57.7389 52.8506 56.9317 55.3653C56.6659 56.3955 56.4474 57.1824 56.2758 57.7161C56.3602 56.3933 56.5518 54.539 56.8461 52.1903V52.177L56.8467 52.1643ZM47.5813 75.5428L47.4829 75.1432C47.3003 74.4196 47.3262 73.6598 47.5576 72.95C48.1269 71.0999 48.7027 69.8638 49.2682 69.2785C49.3592 69.287 49.6218 69.478 50.1943 70.9652C50.4532 71.8305 50.4889 72.746 50.2981 73.6284C49.6734 74.9863 48.9491 75.7738 48.1458 75.9696C47.9042 76.0217 47.7169 75.8802 47.5813 75.5428ZM46.4298 64.3098C45.9403 63.8887 45.5764 63.3434 45.3773 62.7327L45.3499 62.6263C45.3235 61.7558 45.4747 61.2747 45.7803 61.1987H45.8255C46.3136 61.1987 46.5907 61.3583 46.672 61.6861C46.7954 62.568 46.7122 63.4663 46.4287 64.3114L46.4298 64.3098ZM32.8571 70.1096C32.727 69.5057 32.7542 68.879 32.9362 68.2883C33.3128 66.2339 34.2545 65.0308 35.7267 64.7121C35.9299 64.6811 36.1309 64.637 36.3283 64.5801L36.3821 64.8025C36.4636 65.4397 36.4636 66.0846 36.3821 66.7218C36.0027 69.635 35.3134 71.2324 34.333 71.4686L34.1313 71.5181C33.4872 71.4388 33.0696 70.978 32.8565 70.1123L32.8571 70.1096ZM23.3867 72.238H23.4588C24.2253 73.0229 24.9343 73.8608 25.5805 74.7452C26.4411 76.5906 27.1105 78.5174 27.5784 80.4961C28.1051 82.775 28.4085 85.0987 28.4845 87.4351C28.4119 89.1197 28.1256 90.0339 27.6338 90.1525L27.5052 90.1839C27.3593 90.1881 27.2144 90.1576 27.0828 90.0951C26.068 89.1507 25.3768 87.9164 25.1059 86.5646L24.8299 85.4472C23.8766 81.5083 23.3966 77.472 23.3996 73.4219C23.335 73.0306 23.3298 72.6319 23.384 72.2391L23.3867 72.238ZM23.4405 68.7512C23.4864 66.4587 23.776 64.1773 24.3047 61.9447C25.0672 59.2948 25.5256 58.486 25.7833 58.2977C25.7989 58.3791 25.8334 58.5137 25.9006 58.7441L25.9631 58.9979C26.0628 59.6514 26.0515 60.3168 25.9297 60.9667C25.7829 62.2436 25.4836 63.4989 25.0381 64.7062C24.2901 66.7819 23.7542 68.1388 23.44 68.7523L23.4405 68.7512ZM112.093 52.8139C110.226 53.263 107.941 53.9228 106.407 52.5479C106.436 52.335 106.461 52.127 106.477 51.9237C106.493 51.8761 106.506 51.8274 106.516 51.7779C106.716 50.5733 106.738 49.3207 105.861 48.3784C105.097 47.5558 103.857 48.0591 103.513 48.9637C102.967 50.4089 103.499 52.1031 104.513 53.3471C104.285 54.2888 103.996 55.215 103.647 56.1198C102.755 58.0742 101.63 59.2288 100.305 59.5481L100.262 59.5587C100.071 59.6056 99.8754 59.6301 99.6785 59.6316C99.2578 59.6335 98.8481 59.4981 98.513 59.2464L98.4942 59.2326H98.4705C98.2897 59.2278 97.7263 58.7207 95.9792 55.377C95.172 53.7946 94.1685 53.1316 93.0052 53.412L92.8335 53.4535C91.8165 53.6988 91.0083 54.6119 90.4309 56.1714C90.1199 57.1452 89.8724 57.8906 89.6937 58.3961C89.6157 56.944 89.5894 55.8091 89.6141 55.0179L89.549 54.7486V54.7449C89.549 54.7449 89.549 54.7412 89.549 54.739L89.5054 54.5581L89.4963 54.5374C89.4766 54.5097 89.4552 54.4832 89.4322 54.4581C89.3144 54.2513 89.1224 54.0958 88.8941 54.0223L88.8732 54.0154L88.7015 54.0564C88.3464 54.1845 88.0431 54.4233 87.8373 54.7369C85.7856 57.913 83.6236 59.7945 81.4104 60.3292L80.7647 60.4846C80.6722 60.5069 80.627 60.4905 80.613 60.4415C80.5886 59.8713 80.5102 59.3046 80.3789 58.7489C80.2751 58.3356 80.1072 57.9407 79.8812 57.5783C79.6198 57.1146 79.204 56.7547 78.7046 56.5598C78.2052 56.3649 77.653 56.3471 77.1418 56.5093C76.5904 56.6724 76.0772 56.9421 75.6319 57.3027L75.6168 57.3176C75.6012 57.3389 75.5888 57.3601 75.5743 57.3809L75.2837 57.4511L75.2697 57.4868C75.1083 57.8986 74.9469 58.2849 74.7903 58.6574C74.6567 58.9188 74.5377 59.1874 74.4341 59.4619C74.3157 59.7189 74.1979 59.9679 74.0817 60.1994C73.8245 60.4362 73.6484 60.7465 73.578 61.0869C71.8798 64.2603 70.3645 66.0279 69.0753 66.3387C68.6367 66.4451 68.3887 66.3387 68.3042 65.9939C68.1914 65.4966 68.1464 64.9866 68.1702 64.4774C68.294 63.8939 68.3885 63.3253 68.4538 62.7715C68.6384 61.9508 68.7253 61.1114 68.7126 60.2707V60.2611L68.6184 59.8791C68.582 59.6571 68.4633 59.4565 68.2854 59.3165C68.1075 59.1764 67.8833 59.1068 67.6563 59.1214H67.6466L67.5573 59.1427C67.1683 59.2608 67.0397 59.3374 67.0591 59.4433C66.9988 59.645 66.8912 60.3729 66.528 63.0988C66.5107 63.5558 66.5064 63.9725 66.5124 64.3566C66.4478 64.6227 66.3784 64.8925 66.2971 65.159C65.7181 66.3935 65.0956 67.0991 64.4488 67.2555L64.19 67.3172C64.028 67.3575 63.858 67.3527 63.6987 67.3034C63.202 67.1799 62.5687 66.5398 61.8208 65.4038C60.7134 63.5356 59.7168 62.6279 58.773 62.6279C58.6612 62.6278 58.5497 62.641 58.441 62.6672C57.6592 62.8556 57.0215 63.6043 56.5421 64.9084C56.4573 65.5693 56.3337 66.2247 56.1719 66.8713C56.0005 66.0235 55.9017 65.1629 55.8765 64.2986V64.2885V64.2784C55.8265 64.0762 56.0266 63.1174 57.2626 59.6987C58.0727 57.4873 58.7578 55.2331 59.3149 52.9464C60.3566 47.8383 60.6639 44.3494 60.2296 42.5812C60.1975 42.3089 60.0632 42.0583 59.8533 41.8792C59.6433 41.7001 59.3731 41.6054 59.0959 41.6139C59.0351 41.6136 58.9744 41.617 58.914 41.624L58.8172 41.6474C58.4179 41.7437 58.0294 42.1263 57.6603 42.7866C57.1172 44.0557 56.6806 45.3667 56.3549 46.7066C55.6419 48.8881 54.9504 53.8425 54.2983 61.4301C54.2476 61.7949 54.2157 62.162 54.2025 62.53C53.2542 63.016 52.3456 63.5744 51.4851 64.2002C49.7547 65.7082 49.2252 66.161 49.1068 66.252L48.5343 66.0716L48.545 66.1147C48.3971 65.9721 48.1764 65.7747 47.8794 65.5198C48.4024 63.8096 48.5407 62.4283 48.29 61.4131C47.9375 59.9823 47.0674 59.2565 45.7072 59.2565C45.5855 59.2565 45.4586 59.2624 45.3187 59.2757C44.6649 59.4353 44.1741 59.9722 43.8583 60.8831C43.6773 61.5902 43.6407 62.3259 43.7507 63.0471V63.044L43.7593 63.0833C43.7761 63.1791 43.7962 63.2742 43.8195 63.3685L43.8249 63.384C43.8346 63.4271 43.8459 63.4755 43.8615 63.5356C44.2274 64.3553 44.7542 65.0949 45.4112 65.7119C44.4889 67.231 43.5031 68.1356 42.4684 68.3851C41.1522 68.7044 40.0335 68.159 39.1419 66.783C38.4037 65.0675 37.9727 64.1225 37.8236 63.9001C37.6537 63.595 37.407 63.3385 37.1074 63.1554C36.8078 62.9723 36.4655 62.8689 36.1136 62.8551C35.9505 62.8559 35.788 62.875 35.6293 62.912L35.0374 63.0264C34.3856 63.212 33.7833 63.5377 33.2738 63.9804C32.7642 64.423 32.3598 64.9716 32.0897 65.5868C31.7636 66.3259 31.5241 67.0995 31.3757 67.8924C30.5469 68.6779 29.544 69.261 28.4469 69.5951L28.2316 69.6483C27.9448 69.7198 27.6534 69.7717 27.3594 69.8037C25.6967 69.9356 25.1215 69.9878 24.9138 70.0165C24.9192 69.7797 25.1236 69.1215 25.9555 67.4093C27.3836 63.177 27.8862 60.1334 27.4493 58.3637C27.114 57.0042 26.5173 56.4114 25.6983 56.6078L25.6547 56.6184C24.8083 56.8222 24.0943 57.7321 23.5352 59.3225C22.9186 61.1049 22.4729 62.9408 22.204 64.8057C21.9663 66.5731 21.8282 68.3521 21.7902 70.1346C18.1064 73.1112 13.7119 75.2959 9.46795 77.3429C8.04668 78.0272 6.61178 78.6822 5.16324 79.3079C2.86937 80.3014 2.04718 77.5547 1.97615 75.7812C1.83947 72.3567 4.30392 70.2916 6.68819 68.3436C9.29092 66.2152 11.9749 64.1858 14.6573 62.1586C28.3398 51.8232 42.258 41.7326 56.413 32.0352C62.58 33.7708 69.0193 34.9085 75.181 36.1482C76.4105 36.3946 76.9346 34.5333 75.7002 34.2859C71.8335 33.5085 67.9803 32.6588 64.1399 31.7633C62.3475 31.3456 60.4841 30.9529 58.6154 30.5219C60.1059 29.4923 61.5749 28.4334 62.9658 27.3022C63.4422 27.3508 63.9175 27.4013 64.3917 27.4538C76.5219 28.8266 88.4481 32.4124 99.784 36.8022C104.397 38.565 108.906 40.5832 113.29 42.8473C114.657 43.5471 115.985 44.3196 117.268 45.1614C117.621 45.3924 117.953 45.6536 118.261 45.942C118.282 45.9622 118.299 45.9781 118.315 45.9898C118.247 45.9366 118.146 45.8744 118.448 46.2921C121.385 50.3636 114.95 52.127 112.092 52.815L112.093 52.8139Z" fill="white"/>
</svg>
