<svg width="20" height="24" viewBox="0 0 20 24" fill="none" xmlns="http://www.w3.org/2000/svg">
<path fill-rule="evenodd" clip-rule="evenodd" d="M4.53605 5.85366H3.00479C2.49469 5.8537 2.00355 6.05004 1.63025 6.40314C1.25696 6.75624 1.02922 7.23988 0.99291 7.75669L0.00514841 21.8055C-0.0146316 22.0861 0.0227187 22.3678 0.11487 22.6332C0.207022 22.8985 0.351998 23.1417 0.540761 23.3476C0.729523 23.5535 0.958023 23.7177 1.21201 23.8299C1.466 23.9422 1.74004 24.0001 2.01703 24H17.983C18.26 24.0001 18.534 23.9422 18.788 23.8299C19.042 23.7177 19.2705 23.5535 19.4592 23.3476C19.648 23.1417 19.793 22.8985 19.8851 22.6332C19.9773 22.3678 20.0146 22.0861 19.9949 21.8055L19.0071 7.75669C18.9708 7.23988 18.743 6.75624 18.3697 6.40314C17.9964 6.05004 17.5053 5.8537 16.9952 5.85366H15.4749V5.56096C15.4749 4.83067 15.3333 4.10754 15.0582 3.43284C14.7831 2.75814 14.3798 2.14509 13.8714 1.6287C13.363 1.11231 12.7594 0.702695 12.0952 0.423241C11.4309 0.143788 10.719 -2.99788e-05 9.99999 4.68731e-09C7.08677 4.68731e-09 4.39427 2.35668 4.52509 5.56098C4.52911 5.65814 4.53258 5.75591 4.53605 5.85366ZM15.4749 7.60975V12C15.4749 12.2329 15.3838 12.4562 15.2217 12.6209C15.0596 12.7855 14.8397 12.878 14.6104 12.878C14.3812 12.878 14.1613 12.7855 13.9992 12.6209C13.8371 12.4562 13.746 12.2329 13.746 12V7.60975H6.25401V12C6.25401 12.1153 6.23165 12.2295 6.1882 12.336C6.14476 12.4425 6.08108 12.5393 6.00081 12.6209C5.92054 12.7024 5.82524 12.7671 5.72036 12.8112C5.61548 12.8553 5.50307 12.878 5.38955 12.878C5.27602 12.878 5.16361 12.8553 5.05873 12.8112C4.95385 12.7671 4.85855 12.7024 4.77828 12.6209C4.69801 12.5393 4.63433 12.4425 4.59089 12.336C4.54745 12.2295 4.52509 12.1153 4.52509 12C4.52509 12 4.60001 9.94829 4.57523 7.60975H3.00479C2.932 7.60974 2.8619 7.63777 2.80864 7.68817C2.75538 7.73858 2.72291 7.80762 2.71778 7.88138L1.72942 21.9301C1.72657 21.9703 1.73189 22.0106 1.74506 22.0485C1.75822 22.0864 1.77894 22.1212 1.80593 22.1507C1.83291 22.1801 1.86559 22.2036 1.90191 22.2196C1.93823 22.2357 1.97741 22.2439 2.01702 22.2439H17.983C18.0226 22.2439 18.0618 22.2357 18.0981 22.2196C18.1344 22.2036 18.1671 22.1801 18.1941 22.1507C18.221 22.1212 18.2418 22.0864 18.2549 22.0485C18.2681 22.0106 18.2734 21.9703 18.2706 21.9301L17.2822 7.88136C17.2771 7.8076 17.2446 7.73856 17.1913 7.68815C17.1381 7.63775 17.068 7.60973 16.9952 7.60974L15.4749 7.60975ZM13.746 5.85366V5.56096C13.746 5.0613 13.6491 4.56652 13.4608 4.10489C13.2726 3.64326 12.9967 3.22381 12.6488 2.8705C12.301 2.51718 11.888 2.23692 11.4335 2.04571C10.979 1.85451 10.4919 1.7561 9.99999 1.75612C9.50806 1.7561 9.02094 1.85451 8.56645 2.04572C8.11196 2.23693 7.699 2.51719 7.35115 2.87051C7.0033 3.22383 6.72737 3.64328 6.53912 4.10491C6.35087 4.56655 6.25399 5.06133 6.25401 5.56099V5.85369L13.746 5.85366Z" fill="white"/>
</svg>
