<svg width="20" height="24" viewBox="0 0 20 24" fill="none" xmlns="http://www.w3.org/2000/svg">
<path d="M19.6364 22.9091C19.6364 23.5116 19.1479 24 18.5455 24C17.943 24 17.4545 23.5116 17.4545 22.9091C17.4545 18.6916 14.0356 15.2727 9.81818 15.2727C5.60073 15.2727 2.18182 18.6916 2.18182 22.9091C2.18182 23.5116 1.6934 24 1.09091 24C0.488417 24 0 23.5116 0 22.9091C0 17.4867 4.39575 13.0909 9.81818 13.0909C15.2406 13.0909 19.6364 17.4867 19.6364 22.9091ZM9.81818 12C6.50447 12 3.81818 9.31371 3.81818 6C3.81818 2.68629 6.50447 0 9.81818 0C13.1319 0 15.8182 2.68629 15.8182 6C15.8182 9.31371 13.1319 12 9.81818 12ZM9.81818 9.81818C11.9269 9.81818 13.6364 8.10872 13.6364 6C13.6364 3.89128 11.9269 2.18182 9.81818 2.18182C7.70946 2.18182 6 3.89128 6 6C6 8.10872 7.70946 9.81818 9.81818 9.81818Z" fill="white"/>
</svg>
