<svg width="26" height="24" viewBox="0 0 26 24" fill="none" xmlns="http://www.w3.org/2000/svg">
<path d="M13.1514 23.25C12.9608 23.2503 12.7723 23.2112 12.5975 23.1353C12.4231 23.0595 12.2662 22.9486 12.1366 22.8095C12.1363 22.8092 12.136 22.8089 12.1357 22.8086L2.72304 12.9006L2.72128 12.8987L2.72129 12.8987C1.45435 11.5375 0.75 9.74696 0.75 7.88739C0.75 6.02782 1.45435 4.23726 2.72129 2.87607L2.72151 2.87583C3.34023 2.21281 4.08727 1.68248 4.91725 1.31704C5.74722 0.951606 6.64282 0.75869 7.54964 0.750011L7.5531 0.749978C8.46471 0.753869 9.36615 0.941789 10.2034 1.30249C11.0406 1.6632 11.7964 2.18926 12.4253 2.84913L12.4284 2.85233L12.4284 2.85236L13.1589 3.64642L13.891 2.87472C13.8911 2.87461 13.8912 2.87451 13.8913 2.87441C14.5167 2.2125 15.2706 1.6852 16.1069 1.3248C16.9433 0.964338 17.8444 0.778415 18.7552 0.778415C19.6659 0.778415 20.5671 0.964338 21.4035 1.3248C22.2399 1.68526 22.9939 2.21266 23.6194 2.87472L23.6205 2.87592C24.8907 4.2385 25.597 6.03201 25.597 7.89482C25.597 9.75762 24.8907 11.5511 23.6205 12.9137L23.6184 12.916L23.6184 12.916L14.1346 22.8407L14.1306 22.8449L14.1305 22.8449C14.0019 22.9734 13.8491 23.0754 13.6811 23.1449C13.5131 23.2143 13.3331 23.2501 13.1514 23.25ZM13.1514 23.25C13.1513 23.25 13.1511 23.25 13.151 23.25L13.1511 23L13.1515 23.25C13.1515 23.25 13.1514 23.25 13.1514 23.25ZM14.6853 3.60485L14.6853 3.60484C15.2092 3.05192 15.8403 2.61156 16.54 2.31062C17.2398 2.00968 17.9935 1.85448 18.7552 1.85448C19.5169 1.85448 20.2706 2.00968 20.9703 2.31062C21.6698 2.61145 22.3007 3.05159 22.8245 3.60422C23.9052 4.76177 24.5063 6.28639 24.5063 7.87004C24.5063 9.45355 23.9053 10.978 22.8248 12.1355C22.8245 12.1359 22.8242 12.1362 22.8238 12.1366L13.3561 22.0549C13.2978 22.1093 13.221 22.1396 13.1412 22.1396C13.0615 22.1396 12.9848 22.1093 12.9265 22.055L3.48865 12.127C3.48835 12.1267 3.48804 12.1263 3.48774 12.126C2.41093 10.9684 1.81232 9.44609 1.81232 7.86509C1.81232 6.28383 2.41112 4.76124 3.48827 3.60361C4.00958 3.04854 4.63904 2.60611 5.33786 2.30359C6.03669 2.00107 6.79006 1.84486 7.55155 1.84459C8.31517 1.84791 9.07024 2.00554 9.77141 2.30802C10.4726 2.6105 11.1054 3.05158 11.6318 3.60477C11.6319 3.60491 11.632 3.60506 11.6322 3.6052L12.9743 5.02659L13.1558 5.21874L13.3375 5.02693L14.6853 3.60485Z" fill="white" stroke="white" stroke-width="0.5"/>
</svg>
